<?xml version="1.0" encoding="utf-8"?>
<!-- Generator: Adobe Illustrator 25.4.1, SVG Export Plug-In . SVG Version: 6.00 Build 0)  -->
<svg version="1.1" id="圖層_1" xmlns="http://www.w3.org/2000/svg" xmlns:xlink="http://www.w3.org/1999/xlink" x="0px" y="0px"
	 viewBox="0 0 160 160" style="enable-background:new 0 0 160 160;" xml:space="preserve">
<style type="text/css">
	.st0{fill:#FFD370;}
	.st1{clip-path:url(#SVGID_00000043446630878125367020000017464112759811488400_);}
</style>
<path class="st0" d="M54.6,101.7c0,1.3-0.2,2.4-0.6,3.4c-0.4,1-0.9,1.8-1.6,2.5c-0.7,0.7-1.5,1.2-2.4,1.5c-0.9,0.3-1.9,0.5-3,0.5
	s-2.1-0.2-3-0.5c-0.9-0.3-1.7-0.8-2.4-1.5c-0.7-0.7-1.2-1.5-1.6-2.5c-0.4-1-0.6-2.1-0.6-3.4c0-1.3,0.2-2.4,0.6-3.4
	c0.4-1,0.9-1.8,1.6-2.4c0.7-0.7,1.5-1.2,2.4-1.5c0.9-0.3,1.9-0.5,3-0.5c1.1,0,2.1,0.2,3,0.5c0.9,0.3,1.7,0.8,2.4,1.5
	c0.7,0.7,1.2,1.5,1.6,2.4C54.4,99.3,54.6,100.4,54.6,101.7z M50.6,101.7c0-1.6-0.3-2.7-1-3.5c-0.7-0.8-1.5-1.2-2.7-1.2
	c-1.1,0-2,0.4-2.7,1.2c-0.7,0.8-1,2-1,3.5c0,1.6,0.3,2.8,1,3.6c0.7,0.8,1.6,1.2,2.7,1.2s2-0.4,2.7-1.2
	C50.3,104.4,50.6,103.2,50.6,101.7z M70.4,108.6c-0.2,0.2-0.5,0.4-0.9,0.5c-0.4,0.1-0.9,0.2-1.4,0.2c-0.6,0-1.1-0.1-1.6-0.3
	c-0.5-0.2-0.9-0.6-1.2-1.2l-2.8-5.5c-0.3-0.5-0.5-1-0.8-1.6c-0.2-0.5-0.5-1.1-0.7-1.6l-0.2,0c0.1,1,0.1,1.9,0.1,2.8
	c0,0.9,0,1.7,0,2.6v4.6c-0.2,0-0.4,0.1-0.7,0.1c-0.3,0-0.6,0.1-1,0.1c-0.7,0-1.2-0.1-1.5-0.4c-0.3-0.3-0.4-0.7-0.4-1.4V94.9
	c0.2-0.3,0.5-0.5,0.9-0.6c0.4-0.2,0.9-0.2,1.4-0.2c0.6,0,1.1,0.1,1.6,0.3c0.5,0.2,0.9,0.6,1.2,1.2l2.9,5.5c0.3,0.5,0.5,1,0.8,1.6
	c0.2,0.5,0.5,1.1,0.7,1.6l0.1,0c-0.1-1.1-0.1-2.1-0.1-3.1c0-1,0-1.9,0-2.8v-4.1c0.2,0,0.4-0.1,0.7-0.1c0.3,0,0.7-0.1,1-0.1
	c0.7,0,1.2,0.1,1.5,0.4c0.3,0.2,0.4,0.7,0.4,1.3V108.6z M75.8,109.1c-0.6,0-1.1-0.2-1.5-0.5c-0.4-0.4-0.5-0.9-0.5-1.5V94.2
	c0.2,0,0.4-0.1,0.8-0.1c0.3,0,0.7-0.1,1-0.1c0.7,0,1.3,0.1,1.6,0.4c0.3,0.2,0.5,0.7,0.5,1.4V106h5.9c0.1,0.2,0.2,0.4,0.3,0.6
	c0.1,0.3,0.1,0.5,0.1,0.9c0,0.5-0.1,0.9-0.4,1.2c-0.2,0.3-0.5,0.4-1,0.4H75.8z M88.3,109.3c-0.8,0-1.3-0.1-1.6-0.4
	c-0.3-0.3-0.4-0.7-0.4-1.4V94.2c0.2,0,0.4-0.1,0.8-0.1c0.3,0,0.7-0.1,1-0.1c0.7,0,1.3,0.1,1.6,0.4c0.3,0.2,0.5,0.7,0.5,1.4v13.2
	c-0.2,0-0.4,0.1-0.8,0.1C89,109.2,88.7,109.3,88.3,109.3z M106.6,108.6c-0.2,0.2-0.5,0.4-0.9,0.5c-0.4,0.1-0.9,0.2-1.4,0.2
	c-0.6,0-1.1-0.1-1.6-0.3s-0.9-0.6-1.2-1.2l-2.8-5.5c-0.3-0.5-0.5-1-0.8-1.6c-0.2-0.5-0.5-1.1-0.7-1.6l-0.2,0c0.1,1,0.1,1.9,0.1,2.8
	c0,0.9,0,1.7,0,2.6v4.6c-0.2,0-0.4,0.1-0.7,0.1c-0.3,0-0.6,0.1-1,0.1c-0.7,0-1.2-0.1-1.5-0.4c-0.3-0.3-0.4-0.7-0.4-1.4V94.9
	c0.2-0.3,0.5-0.5,0.9-0.6c0.4-0.2,0.9-0.2,1.4-0.2c0.6,0,1.1,0.1,1.6,0.3c0.5,0.2,0.9,0.6,1.2,1.2l2.9,5.5c0.3,0.5,0.5,1,0.8,1.6
	c0.2,0.5,0.5,1.1,0.7,1.6l0.1,0c-0.1-1.1-0.1-2.1-0.1-3.1c0-1,0-1.9,0-2.8v-4.1c0.2,0,0.4-0.1,0.7-0.1c0.3,0,0.7-0.1,1-0.1
	c0.7,0,1.2,0.1,1.5,0.4c0.3,0.2,0.4,0.7,0.4,1.3V108.6z M112.1,109.1c-0.6,0-1.1-0.2-1.5-0.5c-0.4-0.4-0.5-0.9-0.5-1.5V96.3
	c0-0.6,0.2-1.1,0.5-1.5c0.4-0.4,0.9-0.6,1.5-0.6h8.1c0.1,0.2,0.2,0.4,0.3,0.6c0.1,0.2,0.1,0.5,0.1,0.8c0,0.5-0.1,0.9-0.4,1.2
	c-0.2,0.3-0.6,0.4-1,0.4h-5.4v2.7h5.7c0.1,0.2,0.2,0.4,0.3,0.6c0.1,0.2,0.1,0.5,0.1,0.8c0,0.5-0.1,0.9-0.3,1.2
	c-0.2,0.2-0.6,0.4-1,0.4h-4.7v3.1h6.5c0.1,0.2,0.2,0.4,0.3,0.6c0.1,0.3,0.1,0.5,0.1,0.9c0,0.5-0.1,0.9-0.4,1.2
	c-0.2,0.2-0.5,0.4-1,0.4H112.1z"/>
<g>
	<defs>
		
			<rect id="SVGID_1_" x="51.8" y="19.2" transform="matrix(0.9866 -0.1632 0.1632 0.9866 -6.846 13.9076)" width="58.8" height="58.8"/>
	</defs>
	<clipPath id="SVGID_00000068662909031012743040000004380085711879718821_">
		<use xlink:href="#SVGID_1_"  style="overflow:visible;"/>
	</clipPath>
	<g style="clip-path:url(#SVGID_00000068662909031012743040000004380085711879718821_);">
		<path class="st0" d="M101,47.8c-0.2,0-0.3-0.1-0.4,0c-0.3,0-0.6,0.2-0.7,0.5L98,50.9c-0.2,0.2-0.2,0.5-0.2,0.8l1.5,8.9
			c0.3,1.5-0.1,2.9-1,4.2c-0.9,1.3-2.1,2-3.7,2.3l-29,4.8c-1.5,0.3-2.9-0.1-4.2-1c-1.3-0.9-2-2.1-2.3-3.7l-4.8-29
			c-0.3-1.5,0.1-2.9,1-4.2c0.9-1.3,2.1-2,3.7-2.3l29-4.8c0.5-0.1,1-0.1,1.6-0.1c0.1,0,0.3,0,0.3,0c0.3-0.1,0.6-0.2,0.7-0.5l1.4-2
			c0.2-0.3,0.3-0.7,0.1-1.1c-0.1-0.4-0.4-0.6-0.8-0.7c-1.4-0.4-2.8-0.4-4.2-0.2l-29,4.8c-2.8,0.5-5,1.8-6.6,4.1
			c-1.6,2.3-2.2,4.8-1.8,7.6l4.8,29c0.5,2.8,1.8,5,4.1,6.6c2.3,1.6,4.8,2.2,7.6,1.8l29-4.8c2.8-0.5,5-1.8,6.6-4.1
			c1.6-2.3,2.2-4.8,1.8-7.6l-1.8-11.1C101.8,48.2,101.5,47.9,101,47.8z"/>
		<path class="st0" d="M106.5,26.4l-4.5-3.2c-0.7-0.5-1.4-0.6-2.1-0.5c-0.8,0.1-1.4,0.5-1.8,1.2L79.2,50.1l-10.7-7.7
			c-0.7-0.5-1.4-0.6-2.1-0.5c-0.8,0.1-1.4,0.5-1.8,1.2l-3.2,4.5c-0.5,0.7-0.6,1.4-0.5,2.1c0.1,0.8,0.5,1.4,1.2,1.8l17.5,12.5
			c0.7,0.5,1.4,0.6,2.1,0.5c0.8-0.1,1.4-0.5,1.8-1.2l23.7-33.1c0.5-0.7,0.6-1.4,0.5-2.1C107.5,27.4,107.1,26.8,106.5,26.4z"/>
	</g>
</g>
<path class="st0" d="M31.4,124.4v11.7c-0.2,0-0.4,0.1-0.8,0.1c-0.3,0-0.7,0.1-1,0.1c-0.8,0-1.3-0.1-1.6-0.4
	c-0.3-0.3-0.5-0.7-0.5-1.4v-10.1h-3.8c-0.1-0.2-0.2-0.4-0.3-0.6c-0.1-0.3-0.1-0.5-0.1-0.9c0-0.6,0.1-1,0.4-1.2
	c0.2-0.3,0.6-0.4,1-0.4h10.7c0.1,0.2,0.2,0.4,0.3,0.6s0.1,0.5,0.1,0.9c0,0.5-0.1,0.9-0.4,1.2c-0.2,0.3-0.6,0.4-1,0.4H31.4z
	 M51.8,128.7c0,1.3-0.2,2.4-0.6,3.4c-0.4,1-0.9,1.8-1.6,2.5c-0.7,0.7-1.5,1.2-2.4,1.5c-0.9,0.3-1.9,0.5-3,0.5c-1.1,0-2.1-0.2-3-0.5
	c-0.9-0.3-1.7-0.8-2.4-1.5c-0.7-0.7-1.2-1.5-1.6-2.5c-0.4-1-0.6-2.1-0.6-3.4s0.2-2.4,0.6-3.4c0.4-1,0.9-1.8,1.6-2.4
	c0.7-0.7,1.5-1.2,2.4-1.5c0.9-0.3,1.9-0.5,3-0.5c1.1,0,2.1,0.2,3,0.5c0.9,0.3,1.7,0.8,2.4,1.5c0.7,0.7,1.2,1.5,1.6,2.4
	C51.6,126.3,51.8,127.4,51.8,128.7z M47.8,128.7c0-1.6-0.3-2.7-1-3.5c-0.7-0.8-1.5-1.2-2.7-1.2c-1.1,0-2,0.4-2.7,1.2
	c-0.7,0.8-1,2-1,3.5c0,1.6,0.3,2.8,1,3.6c0.7,0.8,1.6,1.2,2.7,1.2c1.1,0,2-0.4,2.7-1.2C47.5,131.5,47.8,130.3,47.8,128.7z
	 M64.1,128.7c0-1.6-0.4-2.8-1.2-3.5c-0.8-0.8-1.8-1.2-3-1.2c-0.3,0-0.6,0-0.8,0s-0.5,0-0.8,0.1v9.1c0.2,0,0.5,0.1,0.8,0.1
	c0.3,0,0.6,0,0.9,0c1.3,0,2.3-0.4,3-1.2C63.7,131.5,64.1,130.3,64.1,128.7z M68,128.7c0,1.3-0.2,2.4-0.6,3.4c-0.4,1-0.9,1.8-1.7,2.4
	c-0.7,0.7-1.6,1.1-2.6,1.5c-1,0.3-2.1,0.5-3.3,0.5c-0.3,0-0.6,0-1,0c-0.3,0-0.7,0-1.1-0.1c-0.4,0-0.7-0.1-1.1-0.2
	c-0.4-0.1-0.7-0.2-1-0.3c-0.8-0.3-1.3-0.9-1.3-1.7v-11.6c0-0.3,0.1-0.6,0.2-0.8c0.2-0.2,0.4-0.3,0.8-0.4c0.7-0.2,1.4-0.4,2.1-0.4
	s1.4-0.1,2.1-0.1c1.3,0,2.4,0.2,3.4,0.5s1.9,0.8,2.6,1.4c0.7,0.6,1.3,1.4,1.7,2.4C67.8,126.2,68,127.3,68,128.7z M85.2,128.7
	c0,1.3-0.2,2.4-0.6,3.4c-0.4,1-0.9,1.8-1.6,2.5c-0.7,0.7-1.5,1.2-2.4,1.5s-1.9,0.5-3,0.5s-2.1-0.2-3-0.5c-0.9-0.3-1.7-0.8-2.4-1.5
	c-0.7-0.7-1.2-1.5-1.6-2.5c-0.4-1-0.6-2.1-0.6-3.4s0.2-2.4,0.6-3.4c0.4-1,0.9-1.8,1.6-2.4c0.7-0.7,1.5-1.2,2.4-1.5
	c0.9-0.3,1.9-0.5,3-0.5c1.1,0,2.1,0.2,3,0.5c0.9,0.3,1.7,0.8,2.4,1.5c0.7,0.7,1.2,1.5,1.6,2.4C85,126.3,85.2,127.4,85.2,128.7z
	 M81.2,128.7c0-1.6-0.3-2.7-1-3.5c-0.7-0.8-1.5-1.2-2.7-1.2c-1.1,0-2,0.4-2.7,1.2c-0.7,0.8-1,2-1,3.5c0,1.6,0.3,2.8,1,3.6
	c0.7,0.8,1.6,1.2,2.7,1.2c1.1,0,2-0.4,2.7-1.2C80.9,131.5,81.2,130.3,81.2,128.7z M94.7,136.2c-0.6,0-1.1-0.2-1.5-0.5
	c-0.4-0.4-0.5-0.9-0.5-1.5v-12.9c0.2,0,0.4-0.1,0.8-0.1c0.3,0,0.7-0.1,1-0.1c0.7,0,1.3,0.1,1.6,0.4c0.3,0.2,0.5,0.7,0.5,1.4v10.2
	h5.9c0.1,0.2,0.2,0.4,0.3,0.6c0.1,0.3,0.1,0.5,0.1,0.9c0,0.5-0.1,0.9-0.4,1.2c-0.2,0.3-0.5,0.4-1,0.4H94.7z M107.3,136.3
	c-0.8,0-1.3-0.1-1.6-0.4c-0.3-0.3-0.4-0.7-0.4-1.4v-13.2c0.2,0,0.4-0.1,0.8-0.1c0.3,0,0.7-0.1,1-0.1c0.7,0,1.3,0.1,1.6,0.4
	c0.3,0.2,0.5,0.7,0.5,1.4v13.2c-0.2,0-0.4,0.1-0.8,0.1C108,136.3,107.6,136.3,107.3,136.3z M116.9,133.4c0.9,0,1.5-0.1,1.8-0.4
	c0.4-0.3,0.6-0.7,0.6-1.1c0-0.4-0.1-0.7-0.4-0.9c-0.3-0.2-0.7-0.5-1.3-0.6l-1.2-0.4c-0.7-0.2-1.3-0.4-1.9-0.7
	c-0.6-0.3-1-0.6-1.4-0.9c-0.4-0.4-0.7-0.8-0.9-1.2c-0.2-0.5-0.3-1.1-0.3-1.8c0-1.4,0.5-2.5,1.5-3.3c1-0.8,2.5-1.2,4.3-1.2
	c0.7,0,1.3,0,1.9,0.1c0.6,0.1,1.1,0.3,1.5,0.5c0.4,0.2,0.8,0.4,1,0.7c0.2,0.3,0.4,0.6,0.4,1c0,0.4-0.1,0.7-0.3,1
	c-0.2,0.3-0.4,0.5-0.6,0.7c-0.4-0.3-0.9-0.5-1.5-0.7c-0.6-0.2-1.3-0.3-2-0.3c-0.8,0-1.4,0.1-1.7,0.4c-0.4,0.2-0.6,0.6-0.6,0.9
	c0,0.3,0.1,0.6,0.4,0.8c0.2,0.2,0.6,0.3,1.2,0.5l1.3,0.4c0.8,0.3,1.4,0.5,2,0.9c0.6,0.3,1.1,0.6,1.5,1c0.4,0.4,0.7,0.8,0.9,1.3
	c0.2,0.5,0.3,1.1,0.3,1.7c0,0.7-0.1,1.3-0.4,1.9c-0.3,0.6-0.7,1-1.2,1.4c-0.5,0.4-1.2,0.7-2,1c-0.8,0.2-1.7,0.3-2.7,0.3
	c-0.8,0-1.4-0.1-2.1-0.2c-0.6-0.1-1.2-0.3-1.7-0.5c-0.5-0.2-0.8-0.5-1.1-0.8c-0.3-0.3-0.4-0.7-0.4-1.2c0-0.4,0.1-0.8,0.4-1.1
	c0.3-0.3,0.5-0.5,0.9-0.7c0.4,0.4,1,0.7,1.6,1C115.4,133.3,116.1,133.4,116.9,133.4z M132.4,124.4v11.7c-0.2,0-0.4,0.1-0.8,0.1
	c-0.3,0-0.7,0.1-1,0.1c-0.8,0-1.3-0.1-1.6-0.4c-0.3-0.3-0.5-0.7-0.5-1.4v-10.1h-3.8c-0.1-0.2-0.2-0.4-0.3-0.6
	c-0.1-0.3-0.1-0.5-0.1-0.9c0-0.6,0.1-1,0.4-1.2c0.2-0.3,0.6-0.4,1-0.4h10.7c0.1,0.2,0.2,0.4,0.3,0.6c0.1,0.3,0.1,0.5,0.1,0.9
	c0,0.5-0.1,0.9-0.4,1.2c-0.2,0.3-0.6,0.4-1,0.4H132.4z"/>
</svg>
