<?xml version="1.0" encoding="utf-8"?>
<!-- Generator: Adobe Illustrator 25.4.1, SVG Export Plug-In . SVG Version: 6.00 Build 0)  -->
<svg version="1.1" id="圖層_1" xmlns="http://www.w3.org/2000/svg" xmlns:xlink="http://www.w3.org/1999/xlink" x="0px" y="0px"
	 viewBox="0 0 313 47" style="enable-background:new 0 0 313 47;" xml:space="preserve">
<style type="text/css">
	.st0{fill:#FFFFFF;}
	.st1{clip-path:url(#SVGID_00000120522999548782389810000002260031456719184824_);}
</style>
<path class="st0" d="M68.8,24.3c0,1.7-0.3,3.1-0.8,4.4c-0.5,1.3-1.2,2.4-2.1,3.2c-0.9,0.9-2,1.5-3.2,2c-1.2,0.4-2.5,0.7-4,0.7
	c-1.4,0-2.8-0.2-4-0.7c-1.2-0.4-2.3-1.1-3.2-2c-0.9-0.9-1.6-2-2.1-3.2c-0.5-1.3-0.7-2.8-0.7-4.4c0-1.7,0.3-3.1,0.8-4.4
	c0.5-1.3,1.2-2.3,2.1-3.2c0.9-0.9,1.9-1.5,3.1-2c1.2-0.4,2.5-0.7,3.9-0.7c1.4,0,2.7,0.2,3.9,0.7c1.2,0.4,2.3,1.1,3.2,2
	c0.9,0.9,1.6,1.9,2.1,3.2C68.5,21.1,68.8,22.6,68.8,24.3z M63.6,24.3c0-2-0.4-3.6-1.3-4.6c-0.9-1-2-1.6-3.5-1.6
	c-1.5,0-2.6,0.5-3.5,1.6c-0.9,1-1.3,2.6-1.3,4.6c0,2.1,0.4,3.6,1.3,4.7c0.9,1,2,1.5,3.5,1.5s2.6-0.5,3.5-1.5
	C63.2,27.9,63.6,26.3,63.6,24.3z M89.4,33.4c-0.3,0.3-0.7,0.5-1.2,0.6c-0.5,0.2-1.1,0.3-1.8,0.3c-0.7,0-1.4-0.1-2-0.4
	s-1.2-0.8-1.6-1.6L79,25.1c-0.4-0.7-0.7-1.4-1-2c-0.3-0.7-0.6-1.4-0.9-2.1L76.9,21c0.1,1.3,0.2,2.5,0.2,3.7c0,1.2,0,2.3,0,3.4v6
	c-0.2,0-0.5,0.1-1,0.1c-0.4,0.1-0.8,0.1-1.3,0.1c-1,0-1.6-0.2-2-0.5c-0.4-0.3-0.6-0.9-0.6-1.8V15.5c0.3-0.4,0.7-0.6,1.2-0.8
	c0.6-0.2,1.2-0.3,1.8-0.3c0.7,0,1.4,0.1,2,0.4c0.6,0.2,1.2,0.8,1.6,1.6l3.7,7.2c0.4,0.7,0.7,1.4,1,2c0.3,0.7,0.6,1.4,0.9,2.1l0.1,0
	c-0.1-1.4-0.2-2.8-0.2-4.1c0-1.3,0-2.5,0-3.7v-5.3c0.2,0,0.5-0.1,0.9-0.2c0.4-0.1,0.9-0.1,1.3-0.1c1,0,1.6,0.2,2,0.5
	c0.4,0.3,0.6,0.9,0.6,1.8V33.4z M96.5,34.1c-0.8,0-1.5-0.2-2-0.7c-0.5-0.5-0.7-1.1-0.7-2V14.5c0.2,0,0.6-0.1,1-0.2
	c0.4-0.1,0.9-0.1,1.3-0.1c1,0,1.7,0.2,2.1,0.5c0.4,0.3,0.6,0.9,0.6,1.9V30h7.7c0.1,0.2,0.2,0.5,0.4,0.8c0.1,0.3,0.2,0.7,0.2,1.1
	c0,0.7-0.2,1.2-0.5,1.6c-0.3,0.3-0.7,0.5-1.2,0.5H96.5z M112.9,34.2c-1,0-1.7-0.2-2.1-0.5c-0.4-0.3-0.6-1-0.6-1.9V14.5
	c0.2,0,0.6-0.1,1-0.2c0.4-0.1,0.9-0.1,1.3-0.1c1,0,1.6,0.2,2,0.5c0.4,0.3,0.6,0.9,0.6,1.9V34c-0.2,0.1-0.6,0.1-1,0.2
	C113.8,34.2,113.3,34.2,112.9,34.2z M136.8,33.4c-0.3,0.3-0.7,0.5-1.2,0.6c-0.5,0.2-1.1,0.3-1.8,0.3c-0.7,0-1.4-0.1-2-0.4
	s-1.2-0.8-1.6-1.6l-3.7-7.2c-0.4-0.7-0.7-1.4-1-2c-0.3-0.7-0.6-1.4-0.9-2.1l-0.2,0.1c0.1,1.3,0.2,2.5,0.2,3.7c0,1.2,0,2.3,0,3.4v6
	c-0.2,0-0.5,0.1-1,0.1c-0.4,0.1-0.8,0.1-1.3,0.1c-1,0-1.6-0.2-2-0.5c-0.4-0.3-0.6-0.9-0.6-1.8V15.5c0.3-0.4,0.7-0.6,1.2-0.8
	c0.6-0.2,1.2-0.3,1.8-0.3c0.7,0,1.4,0.1,2,0.4c0.6,0.2,1.2,0.8,1.6,1.6l3.7,7.2c0.4,0.7,0.7,1.4,1,2c0.3,0.7,0.6,1.4,0.9,2.1l0.1,0
	c-0.1-1.4-0.2-2.8-0.2-4.1c0-1.3,0-2.5,0-3.7v-5.3c0.2,0,0.5-0.1,0.9-0.2c0.4-0.1,0.9-0.1,1.3-0.1c1,0,1.6,0.2,2,0.5
	c0.4,0.3,0.6,0.9,0.6,1.8V33.4z M143.9,34.1c-0.8,0-1.5-0.2-2-0.7c-0.5-0.5-0.7-1.1-0.7-2V17.3c0-0.8,0.2-1.5,0.7-1.9
	c0.5-0.5,1.1-0.7,2-0.7h10.6c0.1,0.2,0.2,0.5,0.4,0.8s0.2,0.7,0.2,1.1c0,0.7-0.2,1.2-0.5,1.6c-0.3,0.3-0.7,0.5-1.3,0.5h-7.1v3.6h7.4
	c0.1,0.2,0.2,0.5,0.4,0.8c0.1,0.3,0.2,0.7,0.2,1.1c0,0.7-0.1,1.2-0.4,1.6c-0.3,0.3-0.7,0.5-1.3,0.5h-6.2v4h8.5
	c0.1,0.2,0.2,0.5,0.4,0.8c0.1,0.3,0.2,0.7,0.2,1.1c0,0.7-0.2,1.2-0.5,1.5c-0.3,0.3-0.7,0.5-1.2,0.5H143.9z M174.1,18.6V34
	c-0.2,0.1-0.6,0.1-1,0.2c-0.4,0.1-0.9,0.1-1.3,0.1c-1,0-1.7-0.2-2.1-0.5c-0.4-0.3-0.6-1-0.6-1.9V18.6h-5c-0.1-0.2-0.3-0.5-0.4-0.8
	c-0.1-0.3-0.2-0.7-0.2-1.1c0-0.7,0.2-1.2,0.5-1.6c0.3-0.3,0.8-0.5,1.3-0.5h14c0.1,0.2,0.3,0.5,0.4,0.8s0.2,0.7,0.2,1.1
	c0,0.7-0.2,1.2-0.5,1.6c-0.3,0.3-0.8,0.5-1.3,0.5H174.1z M200.8,24.3c0,1.7-0.3,3.1-0.8,4.4c-0.5,1.3-1.2,2.4-2.1,3.2
	c-0.9,0.9-2,1.5-3.2,2c-1.2,0.4-2.5,0.7-4,0.7s-2.8-0.2-4-0.7c-1.2-0.4-2.3-1.1-3.2-2c-0.9-0.9-1.6-2-2.1-3.2
	c-0.5-1.3-0.7-2.8-0.7-4.4c0-1.7,0.3-3.1,0.8-4.4c0.5-1.3,1.2-2.3,2.1-3.2c0.9-0.9,1.9-1.5,3.1-2c1.2-0.4,2.5-0.7,3.9-0.7
	c1.4,0,2.7,0.2,3.9,0.7c1.2,0.4,2.3,1.1,3.2,2c0.9,0.9,1.6,1.9,2.1,3.2C200.6,21.1,200.8,22.6,200.8,24.3z M195.6,24.3
	c0-2-0.4-3.6-1.3-4.6c-0.9-1-2-1.6-3.5-1.6c-1.5,0-2.6,0.5-3.5,1.6c-0.9,1-1.3,2.6-1.3,4.6c0,2.1,0.4,3.6,1.3,4.7
	c0.9,1,2,1.5,3.5,1.5s2.6-0.5,3.5-1.5C195.2,27.9,195.6,26.3,195.6,24.3z M216.9,24.3c0-2.1-0.5-3.6-1.5-4.6c-1-1-2.3-1.5-3.9-1.5
	c-0.4,0-0.7,0-1.1,0c-0.3,0-0.7,0.1-1,0.1v11.9c0.3,0.1,0.6,0.1,1,0.2c0.4,0,0.8,0,1.2,0c1.7,0,3-0.5,4-1.5
	C216.4,27.9,216.9,26.4,216.9,24.3z M222,24.2c0,1.7-0.3,3.2-0.8,4.5c-0.5,1.3-1.2,2.3-2.2,3.2c-0.9,0.9-2,1.5-3.4,1.9
	c-1.3,0.4-2.8,0.6-4.4,0.6c-0.4,0-0.8,0-1.2,0c-0.4,0-0.9-0.1-1.4-0.1c-0.5,0-0.9-0.1-1.4-0.2c-0.5-0.1-0.9-0.2-1.3-0.4
	c-1.1-0.4-1.7-1.1-1.7-2.2V16.3c0-0.4,0.1-0.8,0.3-1c0.2-0.2,0.6-0.4,1-0.6c0.9-0.3,1.8-0.5,2.8-0.5s1.9-0.1,2.7-0.1
	c1.6,0,3.1,0.2,4.5,0.6c1.3,0.4,2.5,1,3.5,1.9c1,0.8,1.7,1.9,2.2,3.2C221.8,21,222,22.5,222,24.2z M244.4,24.3
	c0,1.7-0.3,3.1-0.8,4.4c-0.5,1.3-1.2,2.4-2.1,3.2c-0.9,0.9-2,1.5-3.2,2c-1.2,0.4-2.5,0.7-4,0.7s-2.8-0.2-4-0.7
	c-1.2-0.4-2.3-1.1-3.2-2c-0.9-0.9-1.6-2-2.1-3.2c-0.5-1.3-0.7-2.8-0.7-4.4c0-1.7,0.3-3.1,0.8-4.4c0.5-1.3,1.2-2.3,2.1-3.2
	c0.9-0.9,1.9-1.5,3.1-2c1.2-0.4,2.5-0.7,3.9-0.7c1.4,0,2.7,0.2,3.9,0.7c1.2,0.4,2.3,1.1,3.2,2c0.9,0.9,1.6,1.9,2.1,3.2
	C244.2,21.1,244.4,22.6,244.4,24.3z M239.3,24.3c0-2-0.4-3.6-1.3-4.6c-0.9-1-2-1.6-3.5-1.6c-1.5,0-2.6,0.5-3.5,1.6
	c-0.9,1-1.3,2.6-1.3,4.6c0,2.1,0.4,3.6,1.3,4.7c0.9,1,2,1.5,3.5,1.5s2.6-0.5,3.5-1.5C238.8,27.9,239.3,26.3,239.3,24.3z M257,34.1
	c-0.8,0-1.5-0.2-2-0.7c-0.5-0.5-0.7-1.1-0.7-2V14.5c0.2,0,0.6-0.1,1-0.2c0.4-0.1,0.9-0.1,1.3-0.1c1,0,1.7,0.2,2.1,0.5
	c0.4,0.3,0.6,0.9,0.6,1.9V30h7.7c0.1,0.2,0.2,0.5,0.4,0.8c0.1,0.3,0.2,0.7,0.2,1.1c0,0.7-0.2,1.2-0.5,1.6c-0.3,0.3-0.7,0.5-1.2,0.5
	H257z M273.3,34.2c-1,0-1.7-0.2-2.1-0.5c-0.4-0.3-0.6-1-0.6-1.9V14.5c0.2,0,0.6-0.1,1-0.2c0.4-0.1,0.9-0.1,1.3-0.1
	c1,0,1.6,0.2,2,0.5c0.4,0.3,0.6,0.9,0.6,1.9V34c-0.2,0.1-0.6,0.1-1,0.2C274.3,34.2,273.8,34.2,273.3,34.2z M286,30.4
	c1.1,0,1.9-0.2,2.4-0.6c0.5-0.4,0.7-0.9,0.7-1.4c0-0.5-0.2-0.9-0.6-1.2c-0.4-0.3-0.9-0.6-1.7-0.8l-1.6-0.5c-0.9-0.3-1.7-0.6-2.4-0.9
	c-0.7-0.3-1.3-0.7-1.9-1.2c-0.5-0.5-0.9-1-1.2-1.6c-0.3-0.6-0.4-1.4-0.4-2.3c0-1.8,0.7-3.2,2-4.3c1.4-1,3.3-1.6,5.7-1.6
	c0.9,0,1.8,0.1,2.5,0.2c0.8,0.1,1.5,0.3,2,0.6c0.6,0.3,1,0.6,1.3,1c0.3,0.4,0.5,0.8,0.5,1.3c0,0.5-0.1,0.9-0.4,1.3
	c-0.2,0.4-0.5,0.7-0.8,0.9c-0.5-0.3-1.1-0.6-2-0.9c-0.8-0.2-1.7-0.4-2.7-0.4c-1,0-1.8,0.2-2.3,0.5s-0.7,0.7-0.7,1.2
	c0,0.4,0.2,0.8,0.5,1c0.3,0.2,0.8,0.4,1.5,0.7l1.7,0.6c1,0.3,1.9,0.7,2.6,1.1c0.8,0.4,1.4,0.8,1.9,1.3c0.5,0.5,0.9,1.1,1.2,1.7
	c0.3,0.6,0.4,1.4,0.4,2.2c0,0.9-0.2,1.7-0.5,2.5c-0.3,0.7-0.9,1.4-1.6,1.9c-0.7,0.5-1.5,0.9-2.6,1.2c-1,0.3-2.2,0.4-3.5,0.4
	c-1,0-1.9-0.1-2.7-0.3c-0.8-0.1-1.6-0.4-2.2-0.7c-0.6-0.3-1.1-0.7-1.4-1.1c-0.3-0.4-0.5-0.9-0.5-1.5c0-0.6,0.2-1.1,0.5-1.4
	c0.3-0.4,0.7-0.7,1.1-0.9c0.6,0.5,1.3,0.9,2.1,1.2C283.9,30.3,284.9,30.4,286,30.4z M306.2,18.6V34c-0.2,0.1-0.6,0.1-1,0.2
	c-0.4,0.1-0.9,0.1-1.3,0.1c-1,0-1.7-0.2-2.1-0.5c-0.4-0.3-0.6-1-0.6-1.9V18.6h-5c-0.1-0.2-0.3-0.5-0.4-0.8c-0.1-0.3-0.2-0.7-0.2-1.1
	c0-0.7,0.2-1.2,0.5-1.6c0.3-0.3,0.8-0.5,1.3-0.5h14c0.1,0.2,0.3,0.5,0.4,0.8c0.1,0.3,0.2,0.7,0.2,1.1c0,0.7-0.2,1.2-0.5,1.6
	c-0.3,0.3-0.8,0.5-1.3,0.5H306.2z"/>
<g>
	<defs>
		<rect id="SVGID_1_" x="3" y="3.9" transform="matrix(0.9866 -0.1632 0.1632 0.9866 -3.5907 4.0725)" width="40" height="40"/>
	</defs>
	<clipPath id="SVGID_00000153706022900184344540000006715043451865482157_">
		<use xlink:href="#SVGID_1_"  style="overflow:visible;"/>
	</clipPath>
	<g style="clip-path:url(#SVGID_00000153706022900184344540000006715043451865482157_);">
		<path class="st0" d="M36.5,23.3c-0.1,0-0.2,0-0.3,0c-0.2,0-0.4,0.1-0.5,0.3l-1.3,1.8c-0.1,0.2-0.2,0.4-0.1,0.6l1,6
			c0.2,1-0.1,2-0.7,2.9c-0.6,0.9-1.5,1.4-2.5,1.6l-19.7,3.3c-1,0.2-2-0.1-2.9-0.7c-0.9-0.6-1.4-1.5-1.6-2.5L4.7,16.8
			c-0.2-1,0.1-2,0.7-2.9c0.6-0.9,1.5-1.4,2.5-1.6l19.7-3.3c0.3-0.1,0.7-0.1,1.1,0c0.1,0,0.2,0,0.2,0c0.2,0,0.4-0.1,0.5-0.3l1-1.4
			c0.2-0.2,0.2-0.5,0.1-0.7c-0.1-0.2-0.3-0.4-0.5-0.5c-0.9-0.3-1.9-0.3-2.9-0.1L7.3,9.3C5.5,9.6,4,10.6,2.8,12.1
			c-1.1,1.6-1.5,3.3-1.2,5.2L4.9,37c0.3,1.9,1.2,3.4,2.8,4.5c1.6,1.1,3.3,1.5,5.2,1.2l19.7-3.3c1.9-0.3,3.4-1.2,4.5-2.8
			c1.1-1.6,1.5-3.3,1.2-5.2L37.1,24C37,23.6,36.8,23.4,36.5,23.3z"/>
		<path class="st0" d="M40.2,8.7l-3-2.2c-0.4-0.3-0.9-0.4-1.4-0.3c-0.5,0.1-0.9,0.4-1.3,0.8L21.6,24.9l-7.3-5.2
			c-0.4-0.3-0.9-0.4-1.4-0.3c-0.5,0.1-0.9,0.4-1.3,0.8l-2.2,3c-0.3,0.4-0.4,0.9-0.3,1.4c0.1,0.5,0.4,0.9,0.8,1.3l11.9,8.5
			c0.4,0.3,0.9,0.4,1.4,0.3c0.5-0.1,0.9-0.4,1.3-0.8l16.1-22.5c0.3-0.4,0.4-0.9,0.3-1.4C40.9,9.5,40.6,9.1,40.2,8.7z"/>
	</g>
</g>
</svg>
