<?xml version="1.0" encoding="UTF-8" standalone="no"?>
<!-- Generator: Adobe Illustrator 15.0.0, SVG Export Plug-In . SVG Version: 6.00 Build 0)  -->
<svg xmlns:dc="http://purl.org/dc/elements/1.1/" xmlns:cc="http://web.resource.org/cc/" xmlns:rdf="http://www.w3.org/1999/02/22-rdf-syntax-ns#" xmlns:svg="http://www.w3.org/2000/svg" xmlns="http://www.w3.org/2000/svg" xmlns:sodipodi="http://inkscape.sourceforge.net/DTD/sodipodi-0.dtd" xmlns:inkscape="http://www.inkscape.org/namespaces/inkscape" version="1.0" id="圖層_1" x="0px" y="0px" width="449.01001" height="392" viewBox="0 0 449.01 390.527" enable-background="new 0 0 449.01 390.527" xml:space="preserve" sodipodi:version="0.32" inkscape:version="0.43" sodipodi:docname="Seal_of_Keelung.svg" sodipodi:docbase="D:\維基"><metadata id="metadata59"><rdf:RDF><cc:Work rdf:about=""><dc:format>image/svg+xml</dc:format><dc:type rdf:resource="http://purl.org/dc/dcmitype/StillImage"/></cc:Work></rdf:RDF></metadata><defs id="defs57">
	
	
	
	
	

		
	
		
		
	</defs><sodipodi:namedview inkscape:window-height="998" inkscape:window-width="1680" inkscape:pageshadow="2" inkscape:pageopacity="0.0" borderopacity="1.0" bordercolor="#666666" pagecolor="#ffffff" id="base" inkscape:zoom="1" inkscape:cx="224.505" inkscape:cy="195.2635" inkscape:window-x="-8" inkscape:window-y="-8" inkscape:current-layer="圖層_1"/>

<path sodipodi:type="arc" style="opacity:1;fill:#ffffff;fill-opacity:1;fill-rule:nonzero;stroke:none;stroke-width:1.25999999;stroke-miterlimit:4;stroke-dasharray:none;stroke-opacity:1" id="path1385" sodipodi:cx="-239.5" sodipodi:cy="56.763504" sodipodi:rx="93.5" sodipodi:ry="93.5" d="M -146 56.763504 A 93.5 93.5 0 1 1  -333,56.763504 A 93.5 93.5 0 1 1  -146 56.763504 z" transform="matrix(2.093465,0,0,2.093465,724.5328,76.69211)"/><g id="g1415" transform="translate(-1.387779e-17,-4.26285e-6)"><polygon transform="translate(-1e-3,0.736496)" clip-rule="evenodd" points="163.518,305.148 223.185,0 282.852,305.148 163.518,305.148 " id="polygon1417" style="fill:#008738;fill-opacity:1;fill-rule:evenodd"/><polygon transform="translate(-1e-3,0.736496)" clip-rule="evenodd" points="223.149,305.148 292.723,134.114 362.295,305.148 223.149,305.148 " id="polygon1419" style="fill:#00873a;fill-opacity:1;fill-rule:evenodd"/><polygon transform="translate(-1e-3,0.736496)" clip-rule="evenodd" points="84.04,305.148 153.613,134.114 223.185,305.148 84.04,305.148 " id="polygon1421" style="fill:#00873a;fill-opacity:1;fill-rule:evenodd"/><path style="fill:#00007c;fill-opacity:1;fill-rule:evenodd" id="path1423" d="M 242.922,0.776496 L 255.438,63.270496 C 315.025,77.768496 359.267,131.4765 359.267,195.5255 C 359.267,270.7035 298.326,331.6425 223.149,331.6425 C 147.973,331.6425 87.031,270.7035 87.031,195.5255 C 87.031,131.3135 131.497,77.494496 191.315,63.159496 L 203.814,0.736496 C 104.788,10.446496 27.409,93.947496 27.409,195.5255 C 27.409,303.6315 115.044,391.2635 223.148,391.2635 C 331.254,391.2635 418.887,303.6315 418.887,195.5255 C 418.888,94.096496 341.74,10.689496 242.922,0.776496 z " clip-rule="evenodd"/><g transform="translate(-1e-3,0.736496)" id="g1425">
			<path style="fill:#ffffff" id="path1427" d="M 220.09,236.808 L 220.09,249.478 L 98.38,249.478 L 92.12,243.188 L 92.12,225.978 L 101.12,212.228 L 123.09,212.308 L 123.09,218.478 L 220.09,218.478 L 220.09,231.978 L 199.09,231.978 L 199.09,236.808 L 220.09,236.808 z M 170.09,236.478 L 170.09,232.148 L 152.75,232.148 L 152.75,236.478 L 170.09,236.478 z M 123.59,236.478 L 123.59,232.148 L 115.75,232.148 L 112.59,236.478 L 123.59,236.478 z "/>
			<path style="fill:#ffffff" id="path1429" d="M 245.94,294.928 L 246.019,305.138 C 151.169,305.148 22.249,305.148 22.249,305.148 L 1.499,276.148 L 1.499,199.228 L 88,199.228 L 88,235.728 L 83.25,238.978 L 88,242.228 L 88,249.478 L 88,270.478 L 80.25,277.728 L 29,277.728 L 40.63,294.478 L 149.38,294.478 L 149.38,292.978 L 109.63,292.978 L 109.63,286.228 C 109.63,286.228 103.97,288.678 101.37,289.478 C 87.21,293.838 41.38,292.358 41.38,292.358 L 35.5,282.228 L 77.5,282.108 C 77.5,282.108 85.2,280.898 89.54,277.898 C 97.29,272.529 95.43,265.358 95.43,265.358 L 90.75,265.358 L 90.63,249.478 L 98.38,249.478 L 98.441,249.539 L 220.09,249.539 L 220.09,249.478 L 223.08,249.478 L 223.08,263.978 L 176.25,263.978 L 176.25,265.978 L 219,265.978 L 219,279.978 L 176.75,279.978 L 176.75,281.478 L 219.25,281.478 L 219.25,292.978 L 176.25,292.978 L 176.25,294.478 L 245.21,294.478 L 240.21,287.438 L 245.94,294.928 z M 149.42,281.808 L 149.42,279.978 L 114.92,279.978 L 114.92,281.808 L 149.42,281.808 z M 149.42,265.648 L 149.42,264.148 L 124.08,264.148 L 124.08,265.648 L 149.42,265.648 z M 63.19,265.758 C 67.19,259.029 67.19,248.498 63.19,241.768 C 50.4,241.768 37.599,241.768 24.809,241.768 C 24.809,249.758 24.809,257.758 24.809,265.758 C 37.6,265.758 50.4,265.758 63.19,265.758 z M 63.01,232.168 C 67.55,227.428 66.47,217.968 63.191,212.978 C 50.401,212.978 37.6,212.978 24.81,212.978 C 24.81,219.378 24.81,225.768 24.81,232.168 C 33.479,232.168 53,232.168 63.01,232.168 z "/>
			<path style="fill:#ffffff" id="path1431" d="M 279.36,232.128 C 279.36,235.198 279.36,232.388 279.36,235.448 C 298.759,235.448 342.509,235.448 342.509,235.448 C 342.509,235.448 386.259,235.448 405.659,235.448 C 405.659,232.387 405.659,235.198 405.659,232.128 C 386.259,232.128 342.509,232.128 342.509,232.128 C 342.509,232.128 298.76,232.128 279.36,232.128 z M 279.36,246.938 C 279.36,249.999 279.36,247.188 279.36,250.258 C 298.759,250.258 342.509,250.258 342.509,250.258 C 342.509,250.258 386.259,250.258 405.659,250.258 C 405.659,247.188 405.659,249.998 405.659,246.938 C 386.259,246.938 342.509,246.938 342.509,246.938 C 342.509,246.938 298.76,246.938 279.36,246.938 z M 279.36,262.378 C 279.36,265.448 279.36,262.638 279.36,265.698 C 298.759,265.698 342.509,265.698 342.509,265.698 C 342.509,265.698 386.259,265.698 405.659,265.698 C 405.659,262.637 405.659,265.448 405.659,262.378 C 386.259,262.378 342.509,262.378 342.509,262.378 C 342.509,262.378 298.76,262.378 279.36,262.378 z M 329.97,281.018 C 329.97,277.018 329.97,279.869 329.97,276.458 C 313.1,276.458 296.23,276.458 279.35,276.458 C 279.34,278.338 279.361,281.018 279.361,281.018 C 279.361,281.018 323.01,280.898 329.97,281.018 z M 342.51,220.938 C 345.74,220.918 405.66,220.909 405.66,220.909 C 405.66,220.909 405.66,215.728 405.66,212.669 C 407.41,212.669 430.26,212.608 431.66,212.608 C 431.66,214.459 431.66,220.909 431.66,220.909 L 443.94,220.898 L 443.94,234.178 L 433.41,234.178 L 433.389,263.908 L 447.509,263.908 L 447.509,279.267 L 431.8,279.267 L 444.81,287.437 L 439.071,294.927 C 439.071,294.927 439.001,301.137 439.001,305.137 C 409.701,305.137 371.811,305.137 342.511,305.137 C 332.711,305.137 293.661,305.137 246.021,305.137 L 245.942,294.927 L 240.212,287.437 L 253.222,279.267 L 237.512,279.267 L 237.512,263.908 L 251.632,263.908 L 251.612,234.178 L 241.082,234.178 L 241.082,220.898 L 253.362,220.909 C 253.362,220.909 253.362,214.459 253.362,212.608 C 254.761,212.608 277.612,212.669 279.362,212.669 C 279.362,215.729 279.362,220.909 279.362,220.909 C 279.362,220.909 339.28,220.918 342.51,220.938 z M 355.05,276.458 C 355.05,279.868 355.05,277.018 355.05,281.018 C 362.01,280.898 405.66,281.018 405.66,281.018 C 405.66,281.018 405.68,278.338 405.67,276.458 C 388.79,276.458 371.92,276.458 355.05,276.458 z M 418.75,287.568 C 418.75,287.568 418.75,289.608 418.75,290.329 C 417.19,290.329 356.229,290.329 355.05,290.329 C 355.05,291.608 355.05,293.478 355.05,295.268 C 358.63,295.268 425.13,295.138 431,295.268 C 427.86,293.438 422.49,289.989 418.75,287.568 z M 329.97,295.268 C 329.97,293.478 329.97,291.608 329.97,290.329 C 328.79,290.329 267.83,290.329 266.27,290.329 C 266.27,289.608 266.27,287.568 266.27,287.568 C 262.531,289.989 257.161,293.438 254.02,295.268 C 259.89,295.138 326.39,295.268 329.97,295.268 z "/>
		</g><g transform="translate(-1e-3,0.736496)" style="stroke:#00007c;stroke-opacity:1" id="g1433">
			<path style="fill:none;stroke:#00007c;stroke-width:3;stroke-miterlimit:10;stroke-opacity:1" id="path1435" d="M 355.05,281.018 C 362.01,280.898 405.66,281.018 405.66,281.018 C 405.66,281.018 405.68,278.338 405.67,276.458 C 388.79,276.458 371.92,276.458 355.05,276.458 C 355.05,279.869 355.05,277.018 355.05,281.018 z " stroke-miterlimit="10"/>
			<path style="fill:none;stroke:#00007c;stroke-width:3;stroke-miterlimit:10;stroke-opacity:1" id="path1437" d="M 431,295.268 C 427.86,293.438 422.49,289.989 418.75,287.568 C 418.75,287.568 418.75,289.608 418.75,290.329 C 417.19,290.329 356.229,290.329 355.05,290.329 C 355.05,291.608 355.05,293.478 355.05,295.268 C 358.63,295.268 425.13,295.138 431,295.268 z " stroke-miterlimit="10"/>
			<path style="fill:none;stroke:#00007c;stroke-width:3;stroke-miterlimit:10;stroke-opacity:1" id="path1439" d="M 329.97,281.018 C 323.01,280.898 279.361,281.018 279.361,281.018 C 279.361,281.018 279.34,278.338 279.35,276.458 C 296.23,276.458 313.1,276.458 329.97,276.458 C 329.97,279.869 329.97,277.018 329.97,281.018 z " stroke-miterlimit="10"/>
			<path style="fill:none;stroke:#00007c;stroke-width:3;stroke-miterlimit:10;stroke-opacity:1" id="path1441" d="M 329.97,295.268 C 326.39,295.268 259.89,295.138 254.02,295.268 C 257.161,293.438 262.531,289.989 266.27,287.568 C 266.27,287.568 266.27,289.608 266.27,290.329 C 267.831,290.329 328.791,290.329 329.97,290.329 C 329.97,291.608 329.97,293.478 329.97,295.268 z " stroke-miterlimit="10"/>
			<path style="fill:none;stroke:#00007c;stroke-width:3;stroke-miterlimit:10;stroke-opacity:1" id="path1443" d="M 405.66,265.699 C 405.66,262.638 405.66,265.449 405.66,262.379 C 386.26,262.379 342.51,262.379 342.51,262.379 C 342.51,262.379 298.76,262.379 279.361,262.379 C 279.361,265.449 279.361,262.639 279.361,265.699 C 298.76,265.699 342.51,265.699 342.51,265.699 C 342.51,265.699 386.26,265.699 405.66,265.699 z " stroke-miterlimit="10"/>
			<path style="fill:none;stroke:#00007c;stroke-width:3;stroke-miterlimit:10;stroke-opacity:1" id="path1445" d="M 405.66,235.449 C 405.66,232.388 405.66,235.199 405.66,232.129 C 386.26,232.129 342.51,232.129 342.51,232.129 C 342.51,232.129 298.76,232.129 279.361,232.129 C 279.361,235.199 279.361,232.389 279.361,235.449 C 298.76,235.449 342.51,235.449 342.51,235.449 C 342.51,235.449 386.26,235.449 405.66,235.449 z " stroke-miterlimit="10"/>
			<path style="fill:none;stroke:#00007c;stroke-width:3;stroke-miterlimit:10;stroke-opacity:1" id="path1447" d="M 405.66,250.258 C 405.66,247.188 405.66,249.998 405.66,246.938 C 386.26,246.938 342.51,246.938 342.51,246.938 C 342.51,246.938 298.76,246.938 279.361,246.938 C 279.361,249.999 279.361,247.188 279.361,250.258 C 298.76,250.258 342.51,250.258 342.51,250.258 C 342.51,250.258 386.26,250.258 405.66,250.258 z " stroke-miterlimit="10"/>
			<path style="fill:none;stroke:#00007c;stroke-width:3;stroke-miterlimit:10;stroke-opacity:1" id="path1449" d="M 24.81,232.168 C 33.48,232.168 53,232.168 63.01,232.168 C 67.55,227.428 66.47,217.968 63.191,212.978 C 50.401,212.978 37.6,212.978 24.81,212.978 C 24.81,219.378 24.81,225.768 24.81,232.168 z " stroke-miterlimit="10"/>
			<path style="fill:none;stroke:#00007c;stroke-width:3;stroke-miterlimit:10;stroke-opacity:1" id="path1451" d="M 24.81,265.758 C 37.6,265.758 50.401,265.758 63.191,265.758 C 67.191,259.029 67.191,248.498 63.191,241.768 C 50.401,241.768 37.6,241.768 24.81,241.768 C 24.81,249.758 24.81,257.758 24.81,265.758 z " stroke-miterlimit="10"/>
			<path style="fill:none;stroke:#00007c;stroke-width:3;stroke-miterlimit:10;stroke-opacity:1" id="path1453" d="M 240.21,287.438 L 253.22,279.268 L 237.51,279.268 L 237.51,263.909 L 251.63,263.909 L 251.61,234.179 L 241.08,234.179 L 241.08,220.899 L 253.36,220.91 C 253.36,220.91 253.36,214.46 253.36,212.609 C 254.759,212.609 277.61,212.67 279.36,212.67 C 279.36,215.73 279.36,220.91 279.36,220.91 C 279.36,220.91 339.28,220.92 342.509,220.939 C 345.739,220.919 405.659,220.91 405.659,220.91 C 405.659,220.91 405.659,215.729 405.659,212.67 C 407.409,212.67 430.259,212.609 431.659,212.609 C 431.659,214.46 431.659,220.91 431.659,220.91 L 443.939,220.899 L 443.939,234.179 L 433.409,234.179 L 433.388,263.909 L 447.508,263.909 L 447.508,279.268 L 431.8,279.268 L 444.81,287.438 L 439.071,294.928 C 439.071,294.928 439.001,301.138 439.001,305.138 C 409.701,305.138 371.811,305.138 342.511,305.138 C 332.711,305.138 293.661,305.138 246.021,305.138 C 151.171,305.148 22.251,305.148 22.251,305.148 L 1.501,276.148 L 1.501,199.228 L 88,199.228 L 88,235.728 L 83.25,238.978 L 88,242.228 L 88,249.478 L 88,270.478 L 80.25,277.728 L 29,277.728 L 40.63,294.478 L 149.38,294.478 L 149.38,292.978 L 109.63,292.978 L 109.63,286.228 C 109.63,286.228 103.97,288.678 101.37,289.478 C 87.21,293.838 41.38,292.358 41.38,292.358 L 35.5,282.228 L 77.5,282.108 C 77.5,282.108 85.2,280.898 89.54,277.898 C 97.29,272.529 95.43,265.358 95.43,265.358 L 90.75,265.358 L 90.63,249.478 L 98.38,249.478 L 220.09,249.478 L 223.08,249.478 L 223.08,263.978 L 176.25,263.978 L 176.25,265.978 L 219,265.978 L 219,279.978 L 176.75,279.978 L 176.75,281.478 L 219.25,281.478 L 219.25,292.978 L 176.25,292.978 L 176.25,294.478 L 245.21,294.478 L 240.21,287.438 z " stroke-miterlimit="10"/>
			<polygon style="fill:none;stroke:#00007c;stroke-width:3;stroke-miterlimit:10;stroke-opacity:1" id="polygon1455" points="220.09,249.478 220.09,236.808 199.09,236.808 199.09,231.978 220.09,231.978 220.09,218.478 123.09,218.478 123.09,212.308 101.12,212.228 92.12,225.978 92.12,243.188 98.38,249.478 98.44,249.539 220.09,249.539 220.09,249.478 " stroke-miterlimit="10"/>
			
				<rect style="fill:none;stroke:#00007c;stroke-width:3;stroke-miterlimit:10;stroke-opacity:1" id="rect1457" height="4.3299999" width="17.34" stroke-miterlimit="10" y="232.14799" x="152.75"/>
			<polygon style="fill:none;stroke:#00007c;stroke-width:3;stroke-miterlimit:10;stroke-opacity:1" id="polygon1459" points="123.59,236.478 123.59,232.148 115.75,232.148 112.59,236.478 123.59,236.478 " stroke-miterlimit="10"/>
			
				<rect style="fill:none;stroke:#00007c;stroke-width:3;stroke-miterlimit:10;stroke-opacity:1" id="rect1461" height="1.5" width="25.34" stroke-miterlimit="10" y="264.14801" x="124.08"/>
			
				<rect style="fill:none;stroke:#00007c;stroke-width:3;stroke-miterlimit:10;stroke-opacity:1" id="rect1463" height="1.83" width="34.5" stroke-miterlimit="10" y="279.978" x="114.92"/>
		</g></g><style xmlns="" type="text/css" id="igtranslator-color"/></svg>